<svg width="152" height="38" viewBox="0 0 152 38" fill="none" xmlns="http://www.w3.org/2000/svg">
<path d="M65.9286 13.1429C66.2262 13.1429 66.4792 13.247 66.6875 13.4554C66.8958 13.6637 67 13.9167 67 14.2143V27.7857C67 28.0833 66.8958 28.3363 66.6875 28.5446C66.4792 28.753 66.2262 28.8571 65.9286 28.8571H55.2143C54.9167 28.8571 54.6637 28.753 54.4554 28.5446C54.247 28.3363 54.1429 28.0833 54.1429 27.7857V24.5714H48.0714C47.7738 24.5714 47.5208 24.4673 47.3125 24.2589C47.1042 24.0506 47 23.7976 47 23.5V16C47 15.7024 47.0744 15.375 47.2232 15.0179C47.372 14.6607 47.5506 14.378 47.7589 14.1696L52.3125 9.61607C52.5208 9.40774 52.8036 9.22917 53.1607 9.08036C53.5179 8.93155 53.8452 8.85714 54.1429 8.85714H58.7857C59.0833 8.85714 59.3363 8.96131 59.5446 9.16964C59.753 9.37798 59.8571 9.63095 59.8571 9.92857V13.5893C60.3631 13.2917 60.8393 13.1429 61.2857 13.1429H65.9286ZM59.8571 15.5201L56.5201 18.8571H59.8571V15.5201ZM52.7143 11.2344L49.3772 14.5714H52.7143V11.2344ZM54.9018 18.4554L58.4286 14.9286V10.2857H54.1429V14.9286C54.1429 15.2262 54.0387 15.4792 53.8304 15.6875C53.622 15.8958 53.369 16 53.0714 16H48.4286V23.1429H54.1429V20.2857C54.1429 19.9881 54.2173 19.6607 54.3661 19.3036C54.5149 18.9464 54.6935 18.6637 54.9018 18.4554ZM65.5714 27.4286V14.5714H61.2857V19.2143C61.2857 19.5119 61.1815 19.7649 60.9732 19.9732C60.7649 20.1815 60.5119 20.2857 60.2143 20.2857H55.5714V27.4286H65.5714Z" fill="#A7B6C2"/>
<path d="M14.805 13.7679C15.2216 14.1845 15.43 14.6905 15.43 15.2857C15.43 15.881 15.2216 16.3869 14.805 16.8036C14.3883 17.2202 13.8823 17.4286 13.2871 17.4286C12.6919 17.4286 12.1859 17.2202 11.7693 16.8036C11.3526 16.3869 11.1443 15.881 11.1443 15.2857C11.1443 14.6905 11.3526 14.1845 11.7693 13.7679C12.1859 13.3512 12.6919 13.1429 13.2871 13.1429C13.8823 13.1429 14.3883 13.3512 14.805 13.7679ZM26.8585 19.5714V24.5714H11.1443V22.4286L14.7157 18.8571L16.5014 20.6429L22.2157 14.9286L26.8585 19.5714ZM27.93 11.7143H10.0728C9.9761 11.7143 9.89053 11.7515 9.81613 11.8259C9.74916 11.8929 9.71568 11.9747 9.71568 12.0714V25.6429C9.71568 25.7396 9.74916 25.8251 9.81613 25.8996C9.89053 25.9665 9.9761 26 10.0728 26H27.93C28.0267 26 28.1085 25.9665 28.1755 25.8996C28.2499 25.8251 28.2871 25.7396 28.2871 25.6429V12.0714C28.2871 11.9747 28.2499 11.8929 28.1755 11.8259C28.1085 11.7515 28.0267 11.7143 27.93 11.7143ZM29.7157 12.0714V25.6429C29.7157 26.1339 29.5408 26.5543 29.1911 26.904C28.8414 27.2537 28.421 27.4286 27.93 27.4286H10.0728C9.58175 27.4286 9.16137 27.2537 8.81166 26.904C8.46196 26.5543 8.28711 26.1339 8.28711 25.6429V12.0714C8.28711 11.5804 8.46196 11.16 8.81166 10.8103C9.16137 10.4606 9.58175 10.2857 10.0728 10.2857H27.93C28.421 10.2857 28.8414 10.4606 29.1911 10.8103C29.5408 11.16 29.7157 11.5804 29.7157 12.0714Z" fill="#A7B6C2"/>
<path d="M142.688 8.97991C142.933 9.15848 143.033 9.39658 142.989 9.6942L140.132 26.8371C140.094 27.0528 139.975 27.2202 139.775 27.3393C139.67 27.3988 139.555 27.4286 139.429 27.4286C139.347 27.4286 139.257 27.41 139.161 27.3728L134.105 25.308L131.404 28.6004C131.27 28.7716 131.088 28.8571 130.857 28.8571C130.76 28.8571 130.679 28.8423 130.612 28.8125C130.47 28.7604 130.355 28.6711 130.266 28.5446C130.184 28.4256 130.143 28.2917 130.143 28.1429V24.2478L139.786 12.4286L127.855 22.7522L123.446 20.9442C123.171 20.84 123.022 20.6354 123 20.3304C122.985 20.0327 123.104 19.8132 123.357 19.6719L141.929 8.95759C142.04 8.89062 142.159 8.85714 142.286 8.85714C142.435 8.85714 142.568 8.89806 142.688 8.97991Z" fill="#A7B6C2"/>
<path d="M101.431 16.7143V18.1429C101.431 19.7872 100.881 21.2195 99.7796 22.4397C98.6858 23.6525 97.3317 24.3482 95.7171 24.5268V26H98.5742C98.7677 26 98.9351 26.0707 99.0765 26.2121C99.2178 26.3534 99.2885 26.5208 99.2885 26.7143C99.2885 26.9077 99.2178 27.0751 99.0765 27.2165C98.9351 27.3579 98.7677 27.4286 98.5742 27.4286H91.4314C91.2379 27.4286 91.0705 27.3579 90.9291 27.2165C90.7878 27.0751 90.7171 26.9077 90.7171 26.7143C90.7171 26.5208 90.7878 26.3534 90.9291 26.2121C91.0705 26.0707 91.2379 26 91.4314 26H94.2885V24.5268C92.6739 24.3482 91.316 23.6525 90.2148 22.4397C89.1211 21.2195 88.5742 19.7872 88.5742 18.1429V16.7143C88.5742 16.5208 88.6449 16.3534 88.7863 16.2121C88.9276 16.0707 89.0951 16 89.2885 16C89.482 16 89.6494 16.0707 89.7907 16.2121C89.9321 16.3534 90.0028 16.5208 90.0028 16.7143V18.1429C90.0028 19.5193 90.4901 20.6987 91.4648 21.6808C92.447 22.6555 93.6263 23.1429 95.0028 23.1429C96.3793 23.1429 97.5549 22.6555 98.5296 21.6808C99.5117 20.6987 100.003 19.5193 100.003 18.1429V16.7143C100.003 16.5208 100.073 16.3534 100.215 16.2121C100.356 16.0707 100.524 16 100.717 16C100.911 16 101.078 16.0707 101.219 16.2121C101.361 16.3534 101.431 16.5208 101.431 16.7143ZM98.5742 12.4286V18.1429C98.5742 19.125 98.2245 19.9658 97.5251 20.6652C96.8257 21.3646 95.9849 21.7143 95.0028 21.7143C94.0206 21.7143 93.1799 21.3646 92.4805 20.6652C91.7811 19.9658 91.4314 19.125 91.4314 18.1429V12.4286C91.4314 11.4464 91.7811 10.6057 92.4805 9.90625C93.1799 9.20684 94.0206 8.85714 95.0028 8.85714C95.9849 8.85714 96.8257 9.20684 97.5251 9.90625C98.2245 10.6057 98.5742 11.4464 98.5742 12.4286Z" fill="#A7B6C2"/>
</svg>
