<svg width="20" height="21" viewBox="0 0 20 21" fill="none" xmlns="http://www.w3.org/2000/svg">
<path d="M18.9286 5.14286C19.2262 5.14286 19.4792 5.24702 19.6875 5.45536C19.8958 5.66369 20 5.91667 20 6.21429V19.7857C20 20.0833 19.8958 20.3363 19.6875 20.5446C19.4792 20.753 19.2262 20.8571 18.9286 20.8571H8.21429C7.91667 20.8571 7.66369 20.753 7.45536 20.5446C7.24702 20.3363 7.14286 20.0833 7.14286 19.7857V16.5714H1.07143C0.77381 16.5714 0.520833 16.4673 0.3125 16.2589C0.104167 16.0506 0 15.7976 0 15.5V8C0 7.70238 0.0744048 7.375 0.223214 7.01786C0.372024 6.66071 0.550595 6.37798 0.758929 6.16964L5.3125 1.61607C5.52083 1.40774 5.80357 1.22917 6.16071 1.08036C6.51786 0.931546 6.84524 0.857141 7.14286 0.857141H11.7857C12.0833 0.857141 12.3363 0.961309 12.5446 1.16964C12.753 1.37798 12.8571 1.63095 12.8571 1.92857V5.58929C13.3631 5.29167 13.8393 5.14286 14.2857 5.14286H18.9286ZM12.8571 7.52009L9.52009 10.8571H12.8571V7.52009ZM5.71429 3.23437L2.37723 6.57143H5.71429V3.23437ZM7.90179 10.4554L11.4286 6.92857V2.28571H7.14286V6.92857C7.14286 7.22619 7.03869 7.47917 6.83036 7.6875C6.62202 7.89583 6.36905 8 6.07143 8H1.42857V15.1429H7.14286V12.2857C7.14286 11.9881 7.21726 11.6607 7.36607 11.3036C7.51488 10.9464 7.69345 10.6637 7.90179 10.4554ZM18.5714 19.4286V6.57143H14.2857V11.2143C14.2857 11.5119 14.1815 11.7649 13.9732 11.9732C13.7649 12.1815 13.5119 12.2857 13.2143 12.2857H8.57143V19.4286H18.5714Z" fill="#A7B6C2"/>
</svg>
