<svg width="24" height="19" viewBox="0 0 24 19" fill="none" xmlns="http://www.w3.org/2000/svg">
<path d="M21.89 0.000183105H2.10865C0.947974 0.000183105 0 0.946894 0 2.11026V16.173C0 17.3312 0.942722 18.2818 2.10865 18.2818H21.89C23.0494 18.2818 24 17.339 24 16.173V2.11026C24 0.950833 23.056 0.000183105 21.89 0.000183105ZM21.5986 1.40646L12.044 10.9615L2.4067 1.40646H21.5986ZM1.40621 15.8815V2.39388L8.17857 9.10882L1.40621 15.8815ZM2.40013 16.8755L9.17643 10.0989L11.5516 12.4532C11.826 12.7263 12.2698 12.725 12.5429 12.4505L14.859 10.1356L21.5986 16.8755H2.40013ZM22.5938 15.8815L15.8529 9.14165L22.5938 2.40044V15.8815Z" fill="#A7B6C2"/>
</svg>
