<svg width="14" height="20" viewBox="0 0 14 20" fill="none" xmlns="http://www.w3.org/2000/svg">
<path d="M13.4314 8.71429V10.1429C13.4314 11.7872 12.8808 13.2195 11.7796 14.4397C10.6858 15.6525 9.33166 16.3482 7.71708 16.5268V18H10.5742C10.7677 18 10.9351 18.0707 11.0765 18.2121C11.2178 18.3534 11.2885 18.5208 11.2885 18.7143C11.2885 18.9077 11.2178 19.0751 11.0765 19.2165C10.9351 19.3579 10.7677 19.4286 10.5742 19.4286H3.43136C3.23791 19.4286 3.0705 19.3579 2.92913 19.2165C2.78776 19.0751 2.71708 18.9077 2.71708 18.7143C2.71708 18.5208 2.78776 18.3534 2.92913 18.2121C3.0705 18.0707 3.23791 18 3.43136 18H6.2885V16.5268C4.67392 16.3482 3.31603 15.6525 2.21484 14.4397C1.12109 13.2195 0.574219 11.7872 0.574219 10.1429V8.71429C0.574219 8.52083 0.644903 8.35342 0.786272 8.21205C0.927641 8.07068 1.09505 8 1.2885 8C1.48196 8 1.64937 8.07068 1.79074 8.21205C1.93211 8.35342 2.00279 8.52083 2.00279 8.71429V10.1429C2.00279 11.5193 2.49014 12.6987 3.46484 13.6808C4.44699 14.6555 5.6263 15.1429 7.00279 15.1429C8.37928 15.1429 9.55487 14.6555 10.5296 13.6808C11.5117 12.6987 12.0028 11.5193 12.0028 10.1429V8.71429C12.0028 8.52083 12.0735 8.35342 12.2148 8.21205C12.3562 8.07068 12.5236 8 12.7171 8C12.9105 8 13.0779 8.07068 13.2193 8.21205C13.3607 8.35342 13.4314 8.52083 13.4314 8.71429ZM10.5742 4.42857V10.1429C10.5742 11.125 10.2245 11.9658 9.52511 12.6652C8.82571 13.3646 7.98493 13.7143 7.00279 13.7143C6.02065 13.7143 5.17987 13.3646 4.48047 12.6652C3.78106 11.9658 3.43136 11.125 3.43136 10.1429V4.42857C3.43136 3.44643 3.78106 2.60565 4.48047 1.90625C5.17987 1.20684 6.02065 0.857141 7.00279 0.857141C7.98493 0.857141 8.82571 1.20684 9.52511 1.90625C10.2245 2.60565 10.5742 3.44643 10.5742 4.42857Z" fill="#A7B6C2"/>
</svg>
