<svg width="100" height="45" viewBox="0 0 100 45" fill="none" xmlns="http://www.w3.org/2000/svg">
<path d="M75.1261 0.00356338C73.786 -0.0043127 72.7098 1.08882 72.7019 2.42893L72.7042 18.7248C72.7304 19.3103 73.2149 19.8005 73.8122 19.7891C74.3412 19.7833 74.5179 19.5466 74.5179 19.5466L79.0515 14.1443L88.1682 14.1414C89.5083 14.1493 90.5845 13.0562 90.5923 11.7161L90.5964 2.42416C90.5894 1.09585 89.5112 0.00787608 88.1711 0L75.1261 0.00356338Z" fill="white"/>
<path d="M4.34366 44.4938H0V32.7669C0 31.5995 0.108619 30.5948 0.352727 29.7534C0.597065 28.912 0.923158 28.1787 1.35741 27.6088C2.03577 26.7127 2.93137 26.0068 3.99047 25.5455C5.04911 25.0846 6.2437 24.8398 7.54668 24.8398C8.60533 24.8398 9.61 25.0026 10.5329 25.356C11.4285 25.7087 12.216 26.2243 12.8946 26.8489C13.5734 27.4733 14.0891 28.26 14.4692 29.1561C14.8493 30.0519 15.0389 31.0568 15.0389 32.1426C15.0389 33.2552 14.8761 34.2323 14.5234 35.1286C14.1704 36.0242 13.682 36.7843 13.0847 37.4087C12.4601 38.0326 11.7546 38.5217 10.9401 38.8747C10.1255 39.2277 9.25658 39.3902 8.33412 39.3902C7.32944 39.3902 6.4878 39.2276 5.83654 38.9016C5.15796 38.603 4.66906 38.2776 4.34366 37.9513V44.4938ZM87.9239 44.3946H86.1871V32.9109C86.1871 32.4765 86.2007 32.0923 86.2271 31.7572C86.2533 31.4226 86.2836 31.1289 86.3189 30.8752C86.4769 29.9881 86.7484 29.1915 87.1346 28.486C87.5204 27.7801 88.0029 27.183 88.5816 26.6941C89.1603 26.2054 89.8269 25.83 90.5811 25.568C91.3352 25.3055 92.1509 25.1739 93.0277 25.1739C94.0445 25.1739 94.9833 25.3601 95.8428 25.7305C96.7019 26.1016 97.4384 26.6085 98.0529 27.2508C98.6665 27.8935 99.1448 28.6445 99.4868 29.504C99.8287 30.364 100 31.2821 100 32.2595C100 33.2547 99.8287 34.1825 99.4868 35.0422C99.1448 35.9018 98.6665 36.6532 98.0529 37.295C97.4384 37.9375 96.7019 38.4404 95.8428 38.8017C94.9833 39.1636 94.0445 39.3448 93.0277 39.3448C91.9052 39.3448 90.8966 39.1048 90.0024 38.6253C89.1079 38.1465 88.4146 37.5168 87.9239 36.7388V44.3946ZM34.2996 39.0315C34.2495 39.0159 34.1999 38.9998 34.1503 38.9833C33.2274 38.6843 32.4133 38.223 31.7345 37.5986C31.0559 37.0013 30.4859 36.2414 30.0786 35.3185C29.6712 34.4227 29.4539 33.3638 29.4539 32.1423C29.4539 30.9753 29.6712 29.9433 30.0786 29.0208C30.4859 28.1245 31.0284 27.364 31.7345 26.7398C32.4133 26.1154 33.2274 25.6543 34.1776 25.3284C35.1008 25.0028 36.0777 24.8395 37.1366 24.8395C38.0866 24.8395 39.0095 24.9486 39.8516 25.193C40.693 25.4373 41.3172 25.79 41.7246 26.1972C41.9142 26.3873 42.0773 26.6041 42.2128 26.8211C42.3216 27.0661 42.3758 27.3373 42.3758 27.6356C42.3758 27.9344 42.3216 28.2329 42.2128 28.4777C42.1044 28.7221 41.9689 28.9664 41.8059 29.1559C41.643 29.3462 41.4802 29.5364 41.3172 29.6721C41.1275 29.8347 40.9916 29.9433 40.8556 30.0246C40.5297 29.699 40.0686 29.4002 39.4982 29.1019C38.9285 28.8305 38.2223 28.6945 37.4351 28.6945C36.9738 28.6945 36.5122 28.7758 36.105 28.9118C35.6705 29.0477 35.2905 29.2649 34.992 29.5635C34.6663 29.8622 34.422 30.2147 34.2318 30.6492C34.0419 31.0837 33.9333 31.5724 33.9333 32.1423C33.9333 32.7394 34.0419 33.2554 34.2318 33.6626C34.422 34.097 34.6663 34.4495 34.992 34.7212C35.2905 34.9924 35.6705 35.1828 36.105 35.3185C36.5393 35.4537 37.0006 35.5086 37.4895 35.5086C37.8969 35.5086 38.3041 35.4537 38.6568 35.3724C39.0095 35.2909 39.3083 35.2099 39.5797 35.101C39.8516 34.9924 40.0686 34.884 40.2585 34.7756C40.4487 34.6941 40.5571 34.6128 40.6115 34.5581L42.5118 37.87C42.3216 38.0062 42.05 38.1415 41.7246 38.3321C41.3987 38.5215 41.0186 38.6843 40.5571 38.8469C40.1109 39.0047 39.5894 39.1372 39.0157 39.2435C38.9363 39.7379 38.7126 40.1441 38.3438 40.4519C37.8547 40.8666 37.2084 41.074 36.3863 41.074C35.6423 41.074 35.0551 40.9819 34.6245 40.8207C34.1942 40.6588 33.9195 40.5208 33.8022 40.4055L34.2996 39.0315ZM20.2242 33.9611C20.2516 34.1786 20.3599 34.3953 20.5228 34.5855C20.6585 34.8027 20.8759 34.9924 21.1745 35.1828C21.4457 35.3722 21.7986 35.5086 22.2331 35.6172C22.6674 35.7254 23.1829 35.7798 23.8075 35.7798C24.2691 35.7798 24.7307 35.7254 25.1376 35.6441C25.545 35.5628 25.9248 35.4813 26.2238 35.3998C26.5219 35.3185 26.7936 35.2096 26.9837 35.1283C27.1736 35.0468 27.3098 34.9653 27.3364 34.9384L28.8566 37.9789C28.7209 38.0599 28.4766 38.1959 28.1512 38.3589C27.7978 38.5215 27.3909 38.6843 26.8753 38.8471C26.3591 39.0102 25.7896 39.1464 25.1107 39.2547C24.4319 39.3905 23.6721 39.4447 22.8575 39.4447C21.8528 39.4447 20.9028 39.2816 20.007 38.956C19.1114 38.6304 18.3513 38.1415 17.6998 37.5175C17.021 36.8931 16.505 36.1328 16.1251 35.2372C15.7451 34.3411 15.5549 33.3096 15.5549 32.1423C15.5549 31.0566 15.7451 30.0519 16.1251 29.1559C16.505 28.2603 17.021 27.4731 17.6998 26.8487C18.3786 26.2243 19.1656 25.7087 20.0614 25.3558C20.9572 25.0026 21.9346 24.8398 22.9932 24.8398C23.9706 24.8398 24.8389 24.9757 25.6263 25.2198C26.4135 25.4917 27.0654 25.844 27.6081 26.306C28.1239 26.7676 28.5312 27.2829 28.8298 27.8529C29.101 28.4231 29.2369 29.0208 29.2369 29.6448C29.2369 30.3236 29.1283 30.9204 28.884 31.4362C28.6396 31.9791 28.2323 32.4411 27.6352 32.7936C27.011 33.1739 26.1965 33.4726 25.1649 33.6626C24.1061 33.8525 22.776 33.9611 21.1745 33.9611H20.2242ZM55.5147 38.9831C55.4063 39.01 55.1615 39.0648 54.7819 39.0915C54.4019 39.1464 53.9405 39.2001 53.3703 39.2547C52.7999 39.3092 52.1484 39.3631 51.4156 39.3902C50.6826 39.4176 49.8954 39.4444 49.0811 39.4444C47.6968 39.4444 46.5569 39.3092 45.6606 39.0648C44.7648 38.8203 44.0318 38.4946 43.4889 38.0875C42.9462 37.6799 42.566 37.1919 42.3485 36.6212C42.1315 36.0786 42.0231 35.5089 42.0231 34.8842C42.0231 33.2281 42.566 32.0339 43.6244 31.3009C44.6832 30.5948 46.3936 30.2421 48.701 30.2421C49.2712 30.2421 49.7599 30.2421 50.1668 30.2689C50.5471 30.296 50.8728 30.3236 51.1169 30.3504C51.1169 29.7265 50.8728 29.2103 50.3572 28.8576C49.841 28.5044 48.9727 28.3147 47.7781 28.3147C47.2081 28.3147 46.7195 28.3413 46.3121 28.3958C45.8781 28.4777 45.5247 28.559 45.2261 28.6408C44.9276 28.7221 44.6833 28.8302 44.4931 28.912C44.3032 28.993 44.1948 29.0746 44.1131 29.129C44.086 29.1021 44.0047 29.0206 43.896 28.912C43.7877 28.8034 43.679 28.6676 43.5702 28.4777C43.4618 28.3147 43.3532 28.1245 43.2717 27.9073C43.1899 27.6901 43.1362 27.4457 43.1362 27.2014C43.1362 25.627 44.7374 24.8398 47.968 24.8398C49.0264 24.8398 50.0038 24.9211 50.9274 25.1117C51.8499 25.3013 52.6644 25.627 53.3432 26.0883C54.0216 26.5501 54.5374 27.1743 54.9445 27.9344C55.3246 28.6945 55.5147 29.6448 55.5147 30.7849V38.9831ZM77.991 26.6397C77.0049 26.6397 76.2046 26.7665 75.589 27.0197C74.9729 27.274 74.5505 27.5086 74.3223 27.7254C74.1994 27.6354 74.0894 27.5087 73.9937 27.3456C73.8972 27.183 73.8485 27.0021 73.8485 26.803C73.8485 26.6052 73.8972 26.4358 73.9937 26.2932C74.0894 26.151 74.2079 26.027 74.3485 25.92C74.5246 25.7779 74.9129 25.6183 75.5121 25.441C76.1112 25.2632 76.9223 25.1741 77.9451 25.1741C80.0431 25.1741 81.6738 25.6173 82.8376 26.5042C84.0007 27.3908 84.5826 28.821 84.5826 30.7934V38.9103C84.0731 39.0005 83.3389 39.0954 82.3811 39.1955C81.4237 39.2945 80.338 39.3448 79.125 39.3448C77.7184 39.3448 76.5895 39.2173 75.7369 38.9636C74.8845 38.7094 74.2203 38.378 73.7459 37.9692C73.2717 37.5611 72.9548 37.1028 72.797 36.5941C72.6386 36.0862 72.5598 35.5778 72.5598 35.0691C72.5598 34.4158 72.656 33.821 72.8491 33.2855C73.042 32.7504 73.3706 32.2914 73.8357 31.9109C74.3002 31.529 74.9276 31.2297 75.7169 31.0116C76.5059 30.7939 77.4964 30.6848 78.6896 30.6848C79.0754 30.6848 79.4791 30.6986 79.8998 30.7252C80.3205 30.7528 80.7196 30.7796 81.0969 30.8067C81.4737 30.8343 81.8159 30.8658 82.1229 30.9023C82.4297 30.939 82.6711 30.9657 82.8465 30.9833V30.8205C82.8465 29.9878 82.7099 29.3003 82.4373 28.7577C82.1645 28.2141 81.8042 27.7847 81.3552 27.468C80.9065 27.1518 80.3917 26.9341 79.8116 26.8161C79.2311 26.6989 78.6239 26.6397 77.991 26.6397ZM72.1127 38.9647H56.6429V36.8438C58.9931 34.4151 61.3168 31.9315 63.6151 29.394C65.9126 26.8562 68.1135 24.3816 70.2184 21.9704H58.0373C57.7914 21.9704 57.5856 21.904 57.4187 21.7704C57.2522 21.637 57.1688 21.4282 57.1688 21.143C57.1688 20.9469 57.1996 20.7784 57.2611 20.636C57.3222 20.4931 57.3707 20.3953 57.4058 20.342H70.5603C71.139 20.342 71.5553 20.4458 71.8098 20.6541C72.0642 20.8633 72.1917 21.1667 72.1917 21.5656C72.1917 21.9465 72.0468 22.3454 71.7574 22.762C71.4678 23.1785 71.0249 23.7313 70.4287 24.4202C69.8321 25.1089 69.1834 25.8479 68.4818 26.636C67.7801 27.4248 67.0569 28.2274 66.3113 29.0431C65.5658 29.8583 64.8163 30.674 64.0622 31.4904C63.3076 32.3061 62.589 33.0765 61.9047 33.8015C61.2206 34.5269 60.5937 35.1929 60.0235 35.8003C59.4533 36.4074 58.9752 36.9191 58.5898 37.3359H72.1127V38.9647ZM82.8465 32.5304C82.6876 32.4951 82.2701 32.422 81.5929 32.3136C80.915 32.205 79.9172 32.1508 78.5975 32.1508C77.9465 32.1508 77.3574 32.1958 76.8295 32.2861C76.3018 32.377 75.8489 32.5357 75.4707 32.7614C75.0923 32.9879 74.802 33.2908 74.5992 33.671C74.3971 34.0511 74.2959 34.5219 74.2959 35.0829C74.2959 36.06 74.6697 36.7795 75.4174 37.2408C76.1651 37.7026 77.4098 37.9332 79.1521 37.9332C80.2952 37.9332 81.1484 37.8836 81.7114 37.7837C82.2747 37.6842 82.653 37.6073 82.8465 37.5531V32.5304ZM98.1319 32.2595C98.1319 31.4993 98.0134 30.7799 97.7766 30.1011C97.5396 29.4225 97.1977 28.8346 96.7504 28.3363C96.303 27.8389 95.7682 27.4455 95.1456 27.1555C94.5231 26.8666 93.8172 26.721 93.0277 26.721C92.2561 26.721 91.5586 26.8615 90.9361 27.1417C90.3133 27.4228 89.7828 27.8074 89.3447 28.2959C88.9058 28.7845 88.5641 29.3683 88.3186 30.0466C88.0727 30.7254 87.9503 31.4633 87.9503 32.2595C87.9503 33.0193 88.0727 33.7388 88.3186 34.4176C88.5641 35.0962 88.9107 35.6848 89.3578 36.1826C89.8051 36.68 90.3397 37.0782 90.9627 37.3763C91.5851 37.6753 92.2735 37.8245 93.0277 37.8245C93.8172 37.8245 94.5231 37.6845 95.1456 37.4038C95.7682 37.1232 96.303 36.7301 96.7504 36.223C97.1977 35.7164 97.5396 35.1277 97.7766 34.4585C98.0134 33.7889 98.1319 33.0563 98.1319 32.2595ZM51.1442 33.3094C50.9811 33.2825 50.7373 33.2281 50.4383 33.201C50.1129 33.1741 49.624 33.1741 48.9996 33.1741C48.4567 33.1741 48.0225 33.2281 47.6693 33.3094C47.3168 33.3909 47.0722 33.5266 46.8823 33.6626C46.6921 33.8254 46.5569 34.0153 46.4751 34.2054C46.3936 34.3951 46.3663 34.6128 46.3663 34.8296C46.3663 34.9922 46.3936 35.1554 46.4478 35.3454C46.5022 35.5355 46.6104 35.6985 46.8005 35.8343C46.9909 35.9695 47.2623 36.1055 47.6153 36.1868C47.968 36.2956 48.4567 36.3498 49.054 36.3498C49.5156 36.3498 49.9501 36.3229 50.3572 36.2956C50.7641 36.2685 51.0087 36.2412 51.1442 36.2143V33.3094ZM7.43829 35.454C8.33412 35.454 9.094 35.1286 9.69106 34.504C10.2613 33.8796 10.5598 33.0926 10.5598 32.1152C10.5598 31.1379 10.2613 30.3504 9.69106 29.7534C9.094 29.1561 8.33412 28.8576 7.43829 28.8576C6.542 28.8576 5.78236 29.1561 5.21193 29.7265C4.61486 30.296 4.31656 31.1103 4.31656 32.1152C4.31656 32.577 4.39784 33.0113 4.56066 33.4184C4.69661 33.8254 4.91339 34.1783 5.21193 34.4766C5.48359 34.7754 5.80968 35.0197 6.18927 35.1828C6.56933 35.3722 6.97648 35.454 7.43829 35.454ZM20.007 31.1381C21.2282 31.1381 22.1518 31.0835 22.8302 31.0017C23.509 30.9204 23.9974 30.7849 24.3233 30.649C24.6489 30.5135 24.8389 30.3505 24.9206 30.161C25.0017 29.9706 25.029 29.8076 25.029 29.6179C25.029 29.2376 24.8662 28.9117 24.5135 28.6132C24.1603 28.3413 23.6447 28.2063 22.9659 28.2063C22.4772 28.2063 22.0427 28.2874 21.69 28.4504C21.3373 28.6408 21.0385 28.8576 20.7944 29.1288C20.5499 29.4002 20.3599 29.6992 20.2242 30.0519C20.0887 30.4046 20.0345 30.7849 20.007 31.1381Z" fill="white"/>
</svg>
