<svg width="22" height="18" viewBox="0 0 22 18" fill="none" xmlns="http://www.w3.org/2000/svg">
<path d="M6.80497 3.76786C7.22163 4.18452 7.42997 4.69048 7.42997 5.28571C7.42997 5.88095 7.22163 6.3869 6.80497 6.80357C6.3883 7.22024 5.88235 7.42857 5.28711 7.42857C4.69187 7.42857 4.18592 7.22024 3.76925 6.80357C3.35259 6.3869 3.14425 5.88095 3.14425 5.28571C3.14425 4.69048 3.35259 4.18452 3.76925 3.76786C4.18592 3.35119 4.69187 3.14286 5.28711 3.14286C5.88235 3.14286 6.3883 3.35119 6.80497 3.76786ZM18.8585 9.57143V14.5714H3.14425V12.4286L6.71568 8.85714L8.5014 10.6429L14.2157 4.92857L18.8585 9.57143ZM19.93 1.71429H2.07282C1.9761 1.71429 1.89053 1.75149 1.81613 1.82589C1.74916 1.89286 1.71568 1.9747 1.71568 2.07143V15.6429C1.71568 15.7396 1.74916 15.8251 1.81613 15.8996C1.89053 15.9665 1.9761 16 2.07282 16H19.93C20.0267 16 20.1085 15.9665 20.1755 15.8996C20.2499 15.8251 20.2871 15.7396 20.2871 15.6429V2.07143C20.2871 1.9747 20.2499 1.89286 20.1755 1.82589C20.1085 1.75149 20.0267 1.71429 19.93 1.71429ZM21.7157 2.07143V15.6429C21.7157 16.1339 21.5408 16.5543 21.1911 16.904C20.8414 17.2537 20.421 17.4286 19.93 17.4286H2.07282C1.58175 17.4286 1.16137 17.2537 0.811663 16.904C0.461961 16.5543 0.287109 16.1339 0.287109 15.6429V2.07143C0.287109 1.58036 0.461961 1.15997 0.811663 0.810268C1.16137 0.460565 1.58175 0.285713 2.07282 0.285713H19.93C20.421 0.285713 20.8414 0.460565 21.1911 0.810268C21.5408 1.15997 21.7157 1.58036 21.7157 2.07143Z" fill="#A7B6C2"/>
</svg>
