<svg width="24" height="19" viewBox="0 0 24 19" fill="none" xmlns="http://www.w3.org/2000/svg">
<path d="M21.8901 0H2.10866C0.947977 0 0 0.946663 0 2.10997V16.172C0 17.3301 0.942725 18.2807 2.10866 18.2807H21.8901C23.0495 18.2807 24.0001 17.338 24.0001 16.172V2.10997C24.0001 0.950602 23.056 0 21.8901 0ZM21.5986 1.40621L12.044 10.9608L2.4067 1.40621H21.5986ZM1.40621 15.8806V2.39357L8.17859 9.10818L1.40621 15.8806ZM2.40014 16.8745L9.17646 10.0982L11.5516 12.4524C11.8261 12.7255 12.2698 12.7241 12.543 12.4497L14.8591 10.1349L21.5986 16.8745H2.40014ZM22.5939 15.8806L15.853 9.141L22.5939 2.40014V15.8806Z" fill="#E33E1A"/>
</svg>
