<svg width="14" height="15" viewBox="0 0 14 15" fill="none" xmlns="http://www.w3.org/2000/svg">
<path d="M8.57261 8.7606C9.30922 8.024 9.67753 7.13951 9.67753 6.10714C9.67753 5.07478 9.30922 4.19308 8.57261 3.46205C7.84159 2.72545 6.95989 2.35714 5.92753 2.35714C4.89516 2.35714 4.01067 2.72545 3.27407 3.46205C2.54304 4.19308 2.17753 5.07478 2.17753 6.10714C2.17753 7.13951 2.54304 8.024 3.27407 8.7606C4.01067 9.49163 4.89516 9.85714 5.92753 9.85714C6.95989 9.85714 7.84159 9.49163 8.57261 8.7606ZM13.9632 13.0714C13.9632 13.3616 13.8572 13.6127 13.6452 13.8248C13.4331 14.0368 13.182 14.1429 12.8918 14.1429C12.5905 14.1429 12.3394 14.0368 12.1385 13.8248L9.26737 10.9621C8.26849 11.654 7.1552 12 5.92753 12C5.12953 12 4.36503 11.8465 3.634 11.5396C2.90855 11.2271 2.28076 10.8086 1.75063 10.284C1.22607 9.75391 0.807547 9.12612 0.495047 8.40067C0.188128 7.66964 0.034668 6.90513 0.034668 6.10714C0.034668 5.30915 0.188128 4.54743 0.495047 3.82199C0.807547 3.09096 1.22607 2.46317 1.75063 1.93862C2.28076 1.40848 2.90855 0.989955 3.634 0.683035C4.36503 0.370535 5.12953 0.214285 5.92753 0.214285C6.72552 0.214285 7.48724 0.370535 8.21268 0.683035C8.94371 0.989955 9.5715 1.40848 10.0961 1.93862C10.6262 2.46317 11.0447 3.09096 11.3516 3.82199C11.6641 4.54743 11.8204 5.30915 11.8204 6.10714C11.8204 7.33482 11.4744 8.4481 10.7824 9.44699L13.6535 12.3181C13.86 12.5246 13.9632 12.7757 13.9632 13.0714Z" fill="white"/>
</svg>
