<svg width="21" height="21" viewBox="0 0 21 21" fill="none" xmlns="http://www.w3.org/2000/svg">
<path d="M20.6875 0.97991C20.933 1.15848 21.0335 1.39658 20.9888 1.6942L18.1317 18.8371C18.0945 19.0528 17.9754 19.2202 17.7746 19.3393C17.6704 19.3988 17.5551 19.4286 17.4286 19.4286C17.3467 19.4286 17.2574 19.41 17.1607 19.3728L12.1049 17.308L9.40402 20.6004C9.27009 20.7716 9.0878 20.8571 8.85714 20.8571C8.76042 20.8571 8.67857 20.8423 8.61161 20.8125C8.47024 20.7604 8.35491 20.6711 8.26563 20.5446C8.18378 20.4256 8.14286 20.2917 8.14286 20.1429V16.2478L17.7857 4.42857L5.85491 14.7522L1.44643 12.9442C1.17113 12.84 1.02232 12.6354 1 12.3304C0.985119 12.0327 1.10417 11.8132 1.35714 11.6719L19.9286 0.957588C20.0402 0.890624 20.1592 0.857141 20.2857 0.857141C20.4345 0.857141 20.5685 0.898064 20.6875 0.97991Z" fill="#A7B6C2"/>
</svg>
