<svg width="16" height="16" viewBox="0 0 16 16" fill="none" xmlns="http://www.w3.org/2000/svg">
<path d="M11.2951 15.9991C10.5935 15.9991 9.89892 15.8432 9.27171 15.5482C8.82522 15.6208 8.44163 15.6554 8.07842 15.6554C3.8483 15.6554 0.406623 12.2551 0.406623 8.07619C0.406623 7.66955 0.446488 7.24607 0.529761 6.78804C0.182493 6.12979 0 5.39446 0 4.64673C0 2.08461 2.11019 0 4.70496 0C5.512 0 6.30044 0.203765 7.00029 0.591805C7.31921 0.550166 7.66825 0.531561 8.07842 0.531561C10.1222 0.531561 12.041 1.31384 13.4815 2.73488C14.9237 4.15858 15.7174 6.05537 15.7174 8.07619C15.7174 8.61218 15.6811 9.06578 15.6032 9.4866C15.8663 10.0722 15.9992 10.6994 15.9992 11.3524C15.9992 13.9145 13.889 15.9991 11.2951 15.9991ZM9.46926 14.2432L9.66062 14.3451C10.1576 14.61 10.7228 14.7491 11.2951 14.7491C13.1997 14.7491 14.7492 13.2252 14.7492 11.3524C14.7492 10.8217 14.6287 10.3158 14.3921 9.84895L14.2903 9.64873L14.3399 9.42901C14.4267 9.04009 14.4674 8.61041 14.4674 8.07619C14.4674 4.60509 11.6016 1.78073 8.07842 1.78073C7.63813 1.78073 7.28909 1.80554 6.97903 1.85781L6.74516 1.89767L6.54406 1.77276C5.99392 1.43079 5.35785 1.25006 4.70496 1.25006C2.80029 1.25006 1.24999 2.77386 1.24999 4.64673C1.24999 5.25094 1.41388 5.84363 1.72305 6.3619L1.84796 6.57098L1.79835 6.80842C1.70268 7.27265 1.65661 7.68726 1.65661 8.07619C1.65661 11.5659 4.53752 14.4053 8.07842 14.4053C8.42037 14.4053 8.79422 14.3663 9.25488 14.2822L9.46926 14.2432ZM12.0304 9.71428C12.0304 9.26423 11.9418 8.87796 11.7646 8.56523C11.5874 8.25426 11.3385 7.99291 11.0258 7.79003C10.7175 7.5907 10.3401 7.41971 9.90335 7.28062C9.47192 7.1433 8.98468 7.0175 8.45404 6.9041C8.03413 6.80753 7.72849 6.73223 7.54689 6.68261C7.36882 6.63389 7.19164 6.56478 7.0189 6.47885C6.85235 6.39646 6.72124 6.29723 6.62733 6.18472C6.53963 6.07752 6.46787 5.95349 6.46787 5.80554C6.46787 5.56279 6.62999 5.35814 6.90373 5.18007C7.18722 4.99491 7.56903 4.91872 8.03944 4.91872C8.54528 4.91872 8.91381 4.98693 9.1344 5.1526C9.36119 5.32359 9.55874 5.56722 9.72263 5.87641C9.86349 6.11827 9.99105 6.2866 10.1142 6.39468C10.2462 6.51074 10.4367 6.56213 10.6794 6.56213C10.946 6.56213 11.1737 6.4753 11.3518 6.29014C11.5307 6.10587 11.6556 5.89324 11.6556 5.66024C11.6556 5.41927 11.552 5.16943 11.4164 4.91783C11.2809 4.66888 11.0674 4.42968 10.7786 4.20465C10.4925 3.98228 10.1275 3.80244 9.69605 3.66866C9.2664 3.53488 8.75081 3.46844 8.16524 3.46844C7.43349 3.46844 6.78591 3.56855 6.24197 3.76966C5.69095 3.97165 5.26218 4.26844 4.96984 4.64762C4.67395 5.03034 4.50031 5.4742 4.50031 5.96678C4.50031 6.48416 4.66598 6.9227 4.94769 7.27265C5.22497 7.61727 5.60325 7.8928 6.07454 8.09214C6.53432 8.28616 7.11191 8.45714 7.79228 8.60244C8.2928 8.70786 8.69766 8.80709 8.99531 8.89922C9.28057 8.98693 9.5171 9.11716 9.69605 9.28283C9.86526 9.44142 9.95828 9.64341 9.95828 9.90122C9.95828 10.2264 9.78907 10.493 9.46306 10.7145C9.12908 10.9413 8.68437 11.0308 8.14309 11.0308C7.74798 11.0308 7.42818 10.9998 7.19076 10.8873C6.95334 10.7765 6.76819 10.6339 6.64062 10.4656C6.50597 10.2884 6.37928 10.066 6.26323 9.80111C6.15958 9.55836 6.03024 9.36966 5.87876 9.24297C5.72107 9.11008 5.52617 9.03123 5.30116 9.03123C5.02742 9.03123 4.79709 9.12868 4.61637 9.29612C4.43565 9.46534 4.34351 9.67265 4.34351 9.91096C4.34351 10.2937 4.48525 10.6897 4.76431 11.0884C5.03894 11.4835 5.40304 11.8042 5.84332 12.0408C6.45901 12.3668 7.24923 12.5307 8.19093 12.5307C8.97494 12.5307 9.66416 12.4102 10.2391 12.1728C10.8202 11.9336 11.2676 11.5951 11.5715 11.1681C11.8762 10.7402 12.0295 10.2512 12.0304 9.71428Z" fill="#A7B6C2"/>
</svg>
