<svg width="372" height="328" viewBox="0 0 372 328" fill="none" xmlns="http://www.w3.org/2000/svg">
<path fill-rule="evenodd" clip-rule="evenodd" d="M214.688 23.2365C214.799 10.3298 225.174 -0.109806 238.081 0.000871973L348.404 0.0365599C361.193 0.0151364 371.632 10.3905 371.654 23.1794L371.668 101.912C371.689 114.701 361.314 125.141 348.407 125.03L331.77 125.042L331.783 197.734C331.805 210.522 321.429 220.962 308.523 220.851L257.354 220.888L257.361 256.732C257.382 269.52 247.007 279.96 234.1 279.849L158.249 279.903L120.721 324.521C120.178 325.242 117.904 327.745 112.642 327.695C106.497 327.72 101.491 323.172 100.57 317.352L100.452 317.22L100.42 315.588L100.383 184.271L90.9732 184.278L90.9798 220.122C91.0012 232.911 80.6258 243.35 67.7191 243.24L-8.13227 243.293L-45.6599 287.911C-46.2025 288.633 -48.4768 291.135 -53.7395 291.085C-59.884 291.11 -64.8896 286.562 -65.8107 280.742L-65.9286 280.61L-65.9607 278.979L-66 141.446C-65.9033 130.174 -57.9774 120.784 -47.3737 118.66L-47.3945 45.7985C-47.2838 32.8918 -36.9085 22.4522 -24.0018 22.5629L86.321 22.5985C99.1099 22.5771 109.55 32.9525 109.571 45.7413L109.573 59.2378L142.245 59.2484C155.034 59.227 165.473 69.6023 165.495 82.3912L165.508 154.834L174.814 154.837L174.803 119.058C174.914 106.151 185.29 95.7118 198.196 95.8224L214.709 95.8278L214.688 23.2365ZM174.815 160.35L165.509 160.347L165.509 161.124C165.531 173.913 155.155 184.352 142.249 184.242L106.027 184.267L106.065 315.535L106.051 315.785C106.219 319.43 109.075 322.101 112.588 322.051C115.219 322.076 116.144 321.251 116.408 321.015L116.54 320.897L155.682 274.365L234.164 274.337C243.822 274.262 251.791 266.443 251.848 256.667L251.782 220.891L232.671 220.905L195.144 265.523C194.601 266.244 192.327 268.747 187.064 268.697C180.919 268.722 175.914 264.174 174.993 258.354L174.875 258.222L174.843 256.59L174.815 160.35ZM251.771 215.359L230.104 215.367L190.963 261.899L190.831 262.017C190.566 262.253 189.642 263.078 187.01 263.053C183.497 263.103 180.641 260.432 180.473 256.787L180.487 256.537L180.46 160.351L214.728 160.362L214.728 160.769L214.76 162.4L214.878 162.532C215.799 168.352 220.804 172.901 226.949 172.876C232.211 172.926 234.486 170.423 235.028 169.702L241.482 162.028C247.542 164.841 251.743 170.937 251.702 178.052L251.771 215.359ZM257.353 215.357L308.587 215.339C318.245 215.264 326.214 207.445 326.271 197.669L326.135 125.046L272.556 125.083L245.168 157.647C252.4 161.566 257.332 169.213 257.346 177.999L257.353 215.357ZM239.717 155.534L269.989 119.546L326.125 119.525L326.124 119.054C326.181 109.279 318.23 101.428 308.455 101.371L220.355 101.342L220.371 154.852L234.097 154.856C236.033 154.853 237.916 155.088 239.717 155.534ZM220.372 160.364L220.372 160.715L220.358 160.965C220.526 164.61 223.382 167.281 226.895 167.231C229.527 167.256 230.451 166.431 230.716 166.196L230.848 166.078L235.587 160.444C235.074 160.397 234.556 160.372 234.032 160.369L220.372 160.364ZM214.726 154.85L214.711 101.34L198.132 101.335C188.474 101.41 180.505 109.229 180.448 119.005L180.458 154.839L214.726 154.85ZM106.026 178.742L142.313 178.729C151.971 178.654 159.939 170.835 159.997 161.06L159.995 160.345L123.709 160.333C114.052 160.408 106.083 168.227 106.026 178.002L106.026 178.742ZM159.985 154.832L159.85 82.4448C159.907 72.6692 151.956 64.8181 142.181 64.761L109.574 64.7504L109.585 124.474C109.604 135.687 101.631 145.094 90.9665 147.167L90.9722 178.748L100.381 178.744L100.381 178.056C100.492 165.149 110.867 154.71 123.774 154.82L159.985 154.832ZM348.472 119.517L331.769 119.523L331.769 119.001C331.748 106.212 321.308 95.8367 308.519 95.8581L220.354 95.8296L220.333 23.1829C220.39 13.4074 228.359 5.58842 238.017 5.51344L348.34 5.54913C358.115 5.60626 366.066 13.4574 366.009 23.2329L366.155 101.848C366.098 111.623 358.129 119.442 348.472 119.517ZM85.3903 178.75L85.3322 147.592L14.1927 147.643L14.2134 219.927L14.1991 220.177C14.3669 223.822 17.2231 226.493 20.7363 226.443C23.3677 226.468 24.2924 225.643 24.5566 225.407L24.6887 225.29L63.8301 178.758L85.3903 178.75ZM104.073 124.41C104.025 132.586 98.442 139.394 90.9655 141.446L90.9655 141.389C90.944 128.6 80.5044 118.225 67.7155 118.246L14.1843 118.229L14.1741 82.3948C14.2312 72.6193 22.2001 64.8003 31.8578 64.7253L103.962 64.7486L104.073 124.41ZM67.6513 123.759L14.1859 123.742L14.1911 142.106L85.322 142.08L85.3208 141.443C85.3779 131.667 77.4268 123.816 67.6513 123.759ZM8.5294 82.4484L8.53962 118.227L-41.7291 118.211L-41.7498 45.7449C-41.6927 35.9694 -33.7238 28.1504 -24.0661 28.0754L86.2568 28.1111C96.0323 28.1682 103.983 36.0194 103.926 45.7949L103.951 59.236L31.9221 59.2127C19.0154 59.102 8.64008 69.5417 8.5294 82.4484ZM8.54119 123.74L-41.7276 123.724L-41.7105 183.277L-41.7248 183.527C-41.557 187.172 -38.7008 189.843 -35.1876 189.793C-32.5562 189.818 -31.6315 188.993 -31.3673 188.758L-31.2352 188.64L7.90616 142.108L8.54644 142.108L8.54119 123.74ZM-47.3552 183.331L-47.3721 124.391C-54.7863 126.484 -60.3078 133.262 -60.3553 141.393L-60.316 278.925L-60.3303 279.175C-60.1625 282.82 -57.3063 285.491 -53.7931 285.441C-51.1617 285.466 -50.237 284.641 -49.9728 284.405L-49.8407 284.288L-10.6993 237.756L67.7834 237.727C77.4411 237.652 85.41 229.833 85.4672 220.058L85.4006 184.282L66.3971 184.295L28.8695 228.913C28.3268 229.635 26.0526 232.137 20.7899 232.088C14.6454 232.113 9.63979 227.564 8.71864 221.744L8.60083 221.612L8.5687 219.981L8.54868 149.934L-27.0544 192.264C-27.5971 192.985 -29.8714 195.488 -35.134 195.438C-41.2785 195.463 -46.2841 190.914 -47.2053 185.094L-47.3231 184.962L-47.3552 183.331Z" fill="white" fill-opacity="0.03"/>
</svg>
