<svg width="16" height="16" viewBox="0 0 16 16" fill="none" xmlns="http://www.w3.org/2000/svg">
<path d="M15.9992 7.79411C15.9992 12.0978 12.4823 15.5874 8.14366 15.5874C6.76763 15.5874 5.47429 15.2353 4.34806 14.6189L0 16L1.41696 11.8173C0.70251 10.6434 0.290724 9.26477 0.290724 7.79325C0.290724 3.48953 3.80668 0 8.14536 0C12.4832 0.000852561 15.9992 3.48953 15.9992 7.79411ZM8.14366 1.24303C4.50237 1.24303 1.54058 4.18181 1.54058 7.79581C1.54058 9.22897 2.00778 10.5564 2.7981 11.6366L1.97368 14.069L4.5109 13.2633C5.55443 13.9479 6.80258 14.346 8.14366 14.346C11.7849 14.346 14.7476 11.4073 14.7476 7.79411C14.7484 4.18181 11.7849 1.24303 8.14366 1.24303ZM12.1106 9.5896C12.0612 9.51031 11.9333 9.46257 11.7415 9.36623C11.5496 9.27074 10.6016 8.80865 10.426 8.74642C10.2486 8.68248 10.1199 8.65008 9.99201 8.84105C9.86498 9.03288 9.49582 9.46257 9.38243 9.59045C9.27074 9.71919 9.15821 9.73454 8.96553 9.64075C8.77285 9.54356 8.15218 9.34321 7.41642 8.69271C6.84436 8.18543 6.45815 7.56051 6.34646 7.36953C6.23307 7.17856 6.33453 7.0754 6.43001 6.97991C6.51612 6.8938 6.62269 6.75654 6.71903 6.64486C6.81622 6.53317 6.84777 6.45474 6.91171 6.32685C6.9748 6.19897 6.94325 6.08813 6.89551 5.99179C6.84777 5.89546 6.46326 4.95679 6.30213 4.57399C6.14185 4.19204 5.98156 4.25513 5.86903 4.25513C5.75649 4.25513 5.62861 4.23978 5.49987 4.23978C5.37198 4.23978 5.16311 4.28582 4.98663 4.47765C4.811 4.66862 4.31396 5.13071 4.31396 6.07108C4.31396 7.01231 5.00283 7.91943 5.09916 8.04646C5.19636 8.1735 6.43172 10.1659 8.38834 10.9307C10.3467 11.6946 10.3467 11.4397 10.6996 11.4073C11.0534 11.3749 11.8387 10.946 11.9981 10.5001C12.1592 10.0525 12.1592 9.66889 12.1106 9.5896Z" fill="#A7B6C2"/>
</svg>
